<svg width="25px" height="25px" viewBox="0 0 41 41" xmlns="http://www.w3.org/2000/svg"><path fill-rule="evenodd" clip-rule="evenodd" d="M35.7188 20.9043C35.7188 27.5543 31.3854 33.1709 25.4021 35.1543C24.6854 35.2709 24.4354 34.821 24.4354 34.4376C24.4354 33.9376 24.4521 32.321 24.4521 30.321C24.4521 28.921 23.9688 28.0043 23.4354 27.5376C26.7688 27.171 30.2854 25.9043 30.2854 20.1376C30.2854 18.5043 29.7021 17.171 28.7354 16.121C28.9021 15.7376 29.4187 14.2043 28.6021 12.1376C28.6021 12.1376 27.3354 11.7377 24.4688 13.6877C23.2687 13.3543 21.9854 13.1876 20.7188 13.1709C19.4354 13.1876 18.1521 13.3543 16.9688 13.6877C14.1021 11.7377 12.8354 12.1376 12.8354 12.1376C12.0188 14.2043 12.5354 15.7376 12.6854 16.121C11.7354 17.171 11.1521 18.5043 11.1521 20.1376C11.1521 25.8876 14.6521 27.1709 17.9854 27.5543C17.5521 27.9209 17.1687 28.5876 17.0354 29.5543C16.1687 29.9376 14.0021 30.6043 12.6687 28.3043C12.6687 28.3043 11.8687 26.8709 10.3687 26.7709C10.3687 26.7709 8.90205 26.7543 10.2687 27.671C10.2687 27.671 11.2521 28.1376 11.9354 29.871C11.9354 29.871 12.8021 32.5543 16.9854 31.6376C16.9854 32.8876 17.0021 34.071 17.0021 34.4376C17.0021 34.8043 16.7354 35.2709 16.0354 35.1543C10.0521 33.1876 5.71875 27.5543 5.71875 20.9043C5.71875 12.621 12.4354 5.9043 20.7188 5.9043C29.0021 5.9043 35.7188 12.621 35.7188 20.9043Z" fill="inherit"></path></svg>