<?xml version="1.0" encoding="UTF-8" standalone="no" ?>
<!DOCTYPE svg PUBLIC "-//W3C//DTD SVG 1.1//EN" "http://www.w3.org/Graphics/SVG/1.1/DTD/svg11.dtd">
<svg xmlns="http://www.w3.org/2000/svg" xmlns:xlink="http://www.w3.org/1999/xlink" version="1.1" width="1280" height="1024" viewBox="0 0 1280 1024" xml:space="preserve">
<desc>Created with Fabric.js 5.3.0</desc>
<defs>
</defs>
<g transform="matrix(1 0 0 1 640 512)" id="background-logo"  >
<rect style="stroke: none; stroke-width: 0; stroke-dasharray: none; stroke-linecap: butt; stroke-dashoffset: 0; stroke-linejoin: miter; stroke-miterlimit: 4; fill: rgb(255,255,255); fill-opacity: 0; fill-rule: nonzero; opacity: 1;"  paint-order="stroke"  x="-640" y="-512" rx="0" ry="0" width="1280" height="1024" />
</g>
<g transform="matrix(1.683208738899396 0 0 1.683208738899396 217.4901162790698 512.4755201958385)" id="logo-logo"  >
<g style=""  paint-order="stroke"   >
		<g transform="matrix(1.0637418096560296 0 0 1.0637418096560296 67.48833058885987 38.87055431745739)"  >
<path style="stroke: none; stroke-width: 1; stroke-dasharray: none; stroke-linecap: butt; stroke-dashoffset: 0; stroke-linejoin: miter; stroke-miterlimit: 4; fill: rgb(162,79,27); fill-rule: nonzero; opacity: 1;"  paint-order="stroke"  transform=" translate(-361.09515642697136, -458.46984038813224)" d="M 391.3937073 420.9490662 C 391.3937073 448.0052796 379.9342652 472.38137820000003 361.6033325 489.48947150000004 C 351.51693720000003 498.90881350000006 329.29626460000003 508.789032 330.8766784 507.83355720000003 C 332.454071 506.8721009 334.0751342 506.10366830000004 335.6074828 505.05505380000005 C 337.14578240000003 504.0155030000001 338.9946898 503.14257820000006 340.4699096 501.9978333 C 343.42041009999997 499.7173462 346.2207031 497.199524 348.79263299999997 494.5224 L 352.23690789999995 491.130005 L 348.41375729999993 488.8738404 C 348.06527709999995 488.7175904 347.6657103999999 488.5282899 347.2870482999999 488.3420106 L 346.13635249999993 487.7741395 C 345.37017819999994 487.3895875 344.60998529999995 486.9899598 343.84982299999996 486.5813294 C 342.33551029999995 485.7640687 340.84524539999995 484.9017945 339.38204959999996 484.003418 C 337.91278079999995 483.111084 337.02593999999993 482.8665467 335.63186649999994 481.881012 C 335.55072029999997 481.8239136 335.47259529999997 481.7668457 335.39447029999997 481.7097779 C 339.97045909999997 480.6641846 343.46557629999995 479.5262452 347.69598399999995 477.5132142 C 353.4558107 474.782013 358.77087409999996 471.185547 363.4730226 466.952118 C 368.17822279999996 462.7186585 371.7106935 457.4787293 375.1900331 452.25372319999997 C 376.0373537 450.9797974 376.8455507 449.684845 377.6207582 448.3718262 C 378.0112916 447.710846 378.3928834 447.0437928 378.7624513 446.37377929999997 C 380.6913453 442.9005127 382.3859865 439.30102539999996 383.852173 435.6234131 C 387.2593996 427.0754089 389.4768068 418.1157532 390.6425478 409.0419312 C 391.1382751 412.941864 391.3937073 416.9139404 391.3937073 420.9490662 z" stroke-linecap="round" />
</g>
		<g transform="matrix(1.0637418096560296 0 0 1.0637418096560296 -53.06518131148823 -21.156574005999857)"  >
<path style="stroke: none; stroke-width: 1; stroke-dasharray: none; stroke-linecap: butt; stroke-dashoffset: 0; stroke-linejoin: miter; stroke-miterlimit: 4; fill: rgb(82,35,4); fill-rule: nonzero; opacity: 1;"  paint-order="stroke"  transform=" translate(-247.76548299867005, -402.0396730500001)" d="M 259.9765015 456.6402588 C 254.8296509 448.8765869 251.26324469999997 440.04016110000003 249.4695435 430.8399658 C 247.66973879999998 421.63391110000003 247.6095581 412.0855713 249.18402099999997 402.8101806 C 249.98028559999997 398.1715087 251.19110109999997 393.5982665 252.82855219999996 389.17541500000004 C 254.00946039999997 386.02697750000004 255.40643309999996 382.95031730000005 257.06805419999995 380.0118408000001 C 255.78802489999995 380.58264160000004 254.52020259999995 381.1832275000001 253.27337649999996 381.8175049000001 C 250.85150149999996 383.04943850000006 248.50201419999996 384.4102783000001 246.26959229999994 385.9395752000001 C 244.04022219999993 387.4688721000001 241.92791749999995 389.1636963000001 239.99005129999995 391.0352783000001 C 238.05218509999995 392.9073486000001 236.28533939999994 394.9566650000001 234.72308349999994 397.1558838000001 L 232.37640379999993 400.46105960000006 L 232.40643309999993 396.40490730000005 C 232.42449949999994 394.1153565000001 232.76409909999992 391.91564950000003 233.23284909999992 389.76770030000006 C 233.70745849999992 387.61926280000006 234.31146239999993 385.51623550000005 235.00848389999993 383.4547120000001 C 236.39959719999993 379.33264170000007 238.11517339999992 375.3453370000001 240.04119869999994 371.4757081000001 C 241.97015379999993 367.60900890000005 244.11541749999995 363.85607920000007 246.44989009999995 360.2266847000001 C 248.78143309999996 356.5938722000001 251.31732169999995 353.09680190000006 254.04547119999995 349.7525636000001 C 256.77362059999996 346.41174330000007 259.7091675 343.22961440000006 262.8729857999999 340.2823488000001 C 266.0337523999999 337.33752460000005 269.4198607999999 334.61242690000006 273.0704955999999 332.2657472000001 C 274.8222045999999 331.1422120000001 276.6339721999999 330.09680190000006 278.5027465999999 329.1651613000001 C 263.99359129999993 332.17590350000006 250.7133178999999 338.5396730000001 239.5093383999999 347.4122316000001 C 231.0098266999999 354.13928240000007 223.7091674999999 362.3150636000001 217.96600339999992 371.5601808000001 C 215.51434319999993 389.7720949000001 217.9157103999999 417.1143800000001 224.63055419999992 438.6187746000001 L 224.63055419999992 438.6187746000001 C 224.8079223999999 437.9039308000001 227.99285889999993 424.8189699000001 234.57879639999993 417.6768801000001 L 238.34686279999994 418.8160403000001 C 238.34686279999994 418.8160403000001 239.84881589999995 460.5460208000001 277.0756225999999 474.9141848000001 C 270.477478 469.8033447 264.6095581 463.6710205 259.9765015 456.6402588 z" stroke-linecap="round" />
</g>
		<g transform="matrix(1.0637418096560296 0 0 1.0637418096560296 29.32267862208687 7.502005157472411)"  >
<path style="stroke: none; stroke-width: 1; stroke-dasharray: none; stroke-linecap: butt; stroke-dashoffset: 0; stroke-linejoin: miter; stroke-miterlimit: 4; fill: rgb(70,7,7); fill-rule: nonzero; opacity: 1;"  paint-order="stroke"  transform=" translate(-325.2164764500001, -428.9809654795411)" d="M 354.7318726 421.1773682 C 354.58160399999997 419.3868409 354.2211304 417.62316899999996 353.578064 415.97619629999997 C 352.9531861 414.32092289999997 352.0368042 412.7945557 350.9070435 411.45178219999997 C 348.6205445 408.76525879999997 345.4057007 406.9298095 341.9384156 405.98303219999997 C 338.46209719999996 405.0338134 334.7423707 404.91369629999997 331.1369019 405.4454345 C 328.4268189 405.84826649999997 325.7648316 406.6231689 323.2589722 407.73205559999997 C 323.25592040000004 407.73498529999995 323.2528687 407.73498529999995 323.24993900000004 407.73498529999995 C 322.5739136 408.03527829999996 321.9098511 408.35998529999995 321.26092530000005 408.70861809999997 C 321.11065670000005 408.78967279999995 320.96038820000007 408.8707275 320.81024170000006 408.95471189999995 C 318.6017456000001 410.16271969999997 316.5947876000001 411.67980959999994 314.81304930000005 413.44689939999995 C 310.4713745 422.74279779999995 302.66567990000004 436.99035639999994 295.64395140000005 441.16369629999997 C 298.49234010000004 446.25061039999997 307.99871820000004 451.47229009999995 313.00128170000005 452.83068849999995 C 312.57171630000005 451.92346189999995 312.2050171000001 450.9796142999999 311.91363520000004 450.01232909999993 C 311.41180410000004 448.33850099999995 311.14447020000006 446.58996579999996 311.12347410000007 444.84143069999993 C 311.0963745000001 443.09289549999994 311.32171630000005 441.3531494999999 311.7394409000001 439.6793212999999 C 312.15399170000006 438.0030517999999 312.7518921000001 436.38635249999993 313.4699097000001 434.8453368999999 C 314.9121704000001 431.7564696999999 316.8380738000001 428.9713134999999 318.94134520000006 426.3873290999999 C 319.99603270000006 425.0953368999999 321.10467530000005 423.85461429999987 322.23431400000004 422.6524657999999 C 322.5106812 422.3521727999999 322.8082886 422.0548095999999 323.1027222 421.7545165999999 C 323.4000855 421.4566649999999 323.6854859 421.15051269999987 323.99200440000004 420.8648681999999 C 324.6049194 420.2882079999999 325.211853 419.7081298999999 325.86090090000005 419.1705322999999 C 326.49188230000004 418.6114502999999 327.17083740000004 418.10656749999987 327.83489990000004 417.5841064999999 C 328.45379640000004 417.1451416999999 329.0697632 416.6973876999999 329.7127075 416.2921142999999 C 329.73675540000005 416.2740478999999 329.7609253 416.25891119999994 329.7848511 416.24670409999993 C 329.8329468 416.2139892999999 329.8839722 416.1807860999999 329.93499760000003 416.15100099999995 C 331.37420660000004 415.24621579999996 332.8886109 414.44396979999993 334.4900513 413.80725099999995 C 336.0944214 413.17639159999993 337.7831421 412.71350099999995 339.5316773 412.50646979999993 C 341.2772828 412.3018799999999 343.0890503 412.3531494999999 344.84381110000004 412.78576669999995 C 346.59246830000006 413.21545419999995 348.2660523 414.017212 349.69317630000006 415.11730969999996 C 351.12640380000005 416.21398939999995 352.30719000000005 417.5899659 353.2355347000001 419.08020029999994 C 353.8515015000001 420.06555189999995 354.3622437000001 421.09924329999996 354.7890015000001 422.15979009999995 C 354.7769165 421.8326416 354.7589722 421.5050049 354.7318726 421.1773682 z" stroke-linecap="round" />
</g>
		<g transform="matrix(1.0637418096560296 0 0 1.0637418096560296 33.114807172052735 5.903396861441138)"  >
<path style="stroke: none; stroke-width: 1; stroke-dasharray: none; stroke-linecap: butt; stroke-dashoffset: 0; stroke-linejoin: miter; stroke-miterlimit: 4; fill: rgb(80,7,7); fill-rule: nonzero; opacity: 1;"  paint-order="stroke"  transform=" translate(-328.7813721, -427.4781494)" d="M 334.7063599 434.8243408 C 329.4122925 431.42297360000003 327.4984742 426.7266846 328.7212525 420.131958 C 328.3126832 420.4473877 327.90997319999997 420.7686768 327.5224 421.1143799 C 326.9154664 421.6158447 326.3416139 422.1627197 325.7677613 422.7037354 C 325.4762574 422.9713135 325.2089234 423.2623292 324.9264527 423.54211430000004 C 324.65008550000005 423.82434090000004 324.37066660000005 424.10412600000006 324.09710700000005 424.40148930000004 C 323.6765748 424.84924320000005 323.26190190000005 425.29943850000006 322.85638430000006 425.7535401 C 322.8563843 431.5042419 323.9655762 434.8243408 334.7063599 434.8243408 z" stroke-linecap="round" />
</g>
		<g transform="matrix(1.0637418096560296 0 0 1.0637418096560296 29.26400141016751 -77.43178823210712)"  >
<path style="stroke: none; stroke-width: 1; stroke-dasharray: none; stroke-linecap: butt; stroke-dashoffset: 0; stroke-linejoin: miter; stroke-miterlimit: 4; fill: rgb(152,70,18); fill-rule: nonzero; opacity: 1;"  paint-order="stroke"  transform=" translate(-325.1613153090289, -349.13659665)" d="M 329.5714722 338.2208252 C 326.8102417 334.27600099999995 322.56793220000003 331.6109619 317.1655884 330.394165 C 325.8488159 337.10021969999997 326.0965576 349.3971252 321.2669068 367.87902829999996 C 321.37493900000004 367.83996579999996 321.4832154 367.7979736 321.5883179 367.75598139999994 C 323.7877808 366.8814696999999 325.82489019999997 365.62268059999997 327.6065064 364.06018059999997 C 329.3491822 362.53723139999994 330.8214722 360.7100829 332.0443726 358.72424309999997 L 332.04730229999996 358.7213134 C 334.1355591 350.7623291 333.2581177 343.4908447 329.5714722 338.2208252 z" stroke-linecap="round" />
</g>
		<g transform="matrix(1.0637418096560296 0 0 1.0637418096560296 18.896934348668708 -82.72764342585194)"  >
<path style="stroke: none; stroke-width: 1; stroke-dasharray: none; stroke-linecap: butt; stroke-dashoffset: 0; stroke-linejoin: miter; stroke-miterlimit: 4; fill: rgb(124,12,12); fill-rule: nonzero; opacity: 1;"  paint-order="stroke"  transform=" translate(-315.4154663, -344.15808104999996)" d="M 310.8319702 338.569458 C 313.8516846 341.5891724 316.4016723 345.5098267 318.5447388 349.7467041 C 319.2567749 348.0670166 319.7616577 346.4356689 319.9989624 344.8311768 C 317.5411987 340.8712158 313.5870972 339.2398682 310.8319702 338.569458 z" stroke-linecap="round" />
</g>
		<g transform="matrix(1.0637418096560296 0 0 1.0637418096560296 5.168113843797016 15.018438314131913)"  >
<path style="stroke: none; stroke-width: 1; stroke-dasharray: none; stroke-linecap: butt; stroke-dashoffset: 0; stroke-linejoin: miter; stroke-miterlimit: 4; fill: rgb(160,150,150); fill-rule: nonzero; opacity: 1;"  paint-order="stroke"  transform=" translate(-302.5093077, -436.04699700000003)" d="M 375.5510254 368.7843018 C 374.4248657 367.1060791 372.9665527 365.6680909 371.2260742 364.6407471 C 371.2174072 364.635376 371.2086792 364.6304932 371.19995120000004 364.6251221 C 365.85491950000005 361.46154789999997 360.32952880000005 358.9888916 355.2189331000001 357.4234619 C 375.6707764000001 383.2686767 377.5417480000001 409.9874267 356.9791870000001 438.5679931 C 360.8370972000001 432.88635250000004 364.90240480000006 425.22766110000003 367.9219360000001 415.3546142 L 367.9220581000001 415.35412590000004 C 368.4686890000001 411.53527820000005 368.70013430000006 407.668579 368.5199585000001 403.82873530000006 C 368.4207153000001 401.6236572000001 368.1832886000001 399.43029780000006 367.7987671000001 397.26086420000007 C 366.7621460000001 391.3179931000001 364.58990480000006 385.5914306000001 361.3600464000001 380.5435790000001 C 358.1420288000001 375.4898681000001 353.9025269000001 371.12707510000007 349.0473023000001 367.68713370000006 C 346.6195679000001 365.96252430000004 344.02960210000015 364.4722899000001 341.33441170000015 363.24328600000007 C 338.9127808000001 362.14953600000007 336.40094000000016 361.2569579000001 333.83807380000013 360.66809070000005 C 327.8139039000001 372.27209460000006 316.7479859000001 374.16467270000004 306.61663830000015 372.70178210000006 C 306.02166760000017 373.43176260000007 305.39373790000013 374.12268050000006 304.75970470000016 374.79553210000006 C 303.4467164000002 376.17492660000005 302.07366950000016 377.46398910000005 300.67645270000014 378.71350090000004 C 298.0385132000001 381.06604000000004 295.3043824000001 383.27160640000005 292.5370484000001 385.42590320000005 C 293.3844605000001 404.21643050000006 282.2655640000001 415.57971180000004 274.94647220000013 423.4097899000001 C 268.4235230000001 431.6724852000001 271.00628670000015 441.79797350000007 280.1522827000001 447.3170165000001 C 280.1071167000001 447.2271727000001 280.0680542000001 447.1368407000001 280.02606200000014 447.0469970000001 C 279.62042240000017 446.1065673000001 279.28094480000016 445.1387939000001 279.01043700000014 444.15051260000007 C 278.75213620000017 443.15881340000004 278.5748901000001 442.1461181000001 278.4666138000001 441.12756340000004 C 278.36151130000013 440.106079 278.3524781000001 439.07873530000006 278.4035034000001 438.05725090000004 C 278.6378784000001 433.95568840000004 280.2123413000001 429.99279780000006 282.6641235000001 426.77502430000004 C 283.8720092000001 425.14318840000004 285.3112182000001 423.71350090000004 286.85540770000006 422.43029770000004 C 287.2369995000001 422.10607890000006 287.64569090000003 421.81457500000005 288.0392456000001 421.50793440000007 C 288.4479370000001 421.21643050000006 288.8565063000001 420.92492660000005 289.27117920000006 420.64855940000007 C 290.11846920000005 420.10168440000007 290.94476320000007 419.59680160000005 291.78594970000006 419.11340320000005 C 295.1510620000001 417.16613760000007 298.63934330000006 415.45959460000006 302.16986080000004 413.89709460000006 C 305.703186 412.33215320000005 309.2846069 410.91955550000006 312.83294670000004 409.49865710000006 C 314.6057738 408.78967270000004 316.3724975 408.07434070000005 318.1090697 407.32336410000005 C 318.8002318 407.02307110000004 319.48822010000004 406.71643050000006 320.16717520000003 406.4010008000001 C 320.80413810000005 406.1036375000001 321.43524160000004 405.79699690000007 322.05413810000005 405.4786375000001 C 322.4296264 405.2833250000001 322.80218500000007 405.0880125000001 323.16888420000004 404.8834227000001 C 324.77923580000004 403.9884032000001 326.32049550000005 402.9815672000001 327.5404662 401.7647704000001 C 328.1503295 401.1549071000001 328.6701049 400.4937743000001 329.05169670000004 399.7818602000001 C 329.23797600000006 399.4273680000001 329.40325920000004 399.0606688000001 329.52044670000004 398.6822508000001 C 329.5745238 398.4927977000001 329.63763420000004 398.30334460000006 329.67376700000005 398.1051024000001 L 329.7037963000001 397.96105940000007 C 329.7157592000001 397.9097899000001 329.72479240000007 397.8619383000001 329.72479240000007 397.83801250000005 C 329.7367553000001 397.77795390000006 329.73980700000004 397.71447730000006 329.73980700000004 397.65148910000005 C 329.7548216 397.15002430000004 329.44537340000005 396.46496570000005 328.94952380000007 395.83654770000004 C 328.4568480000001 395.20275860000004 327.81072990000007 394.60803210000006 327.1168822000001 394.06408680000004 C 326.42279040000005 393.52307120000006 325.6655883000001 393.03039540000003 324.88446030000006 392.59484850000007 C 324.10919170000005 392.1622313000001 323.2799681000001 391.76867660000005 322.51385480000005 391.52502430000004 L 318.09710680000006 390.13098130000003 L 322.52874740000004 389.07971180000004 C 324.5839232 388.59289540000003 326.6541136 388.27746570000005 328.72125230000006 388.11193840000004 C 330.79144270000006 387.94104000000004 332.85552960000007 387.90783680000004 334.91058340000006 387.97668450000003 C 336.96575920000004 388.0396728 339.00592030000007 388.2139892 341.03411860000006 388.4693603 C 343.05902090000006 388.7310791 345.07513420000004 389.0616455 347.05523680000005 389.5240478 C 339.38153070000004 391.29699700000003 334.94830320000005 392.2117614 333.91168210000006 393.25131220000003 C 334.49163820000007 394.36312860000004 335.4550171000001 398.84689330000003 334.29522700000007 401.26242060000004 C 338.83819580000005 401.0700378 353.04022210000005 403.04162590000004 355.7714233000001 414.57043450000003 C 355.8375854000001 414.7296142 355.9006958000001 414.8946533 355.9638061000001 415.05725090000004 C 356.7028198000001 416.96203610000003 357.1085815000001 418.96887200000003 357.2797241000001 420.97033680000004 C 357.5951538000001 424.98693840000004 356.9492798000001 428.95324700000003 355.85247800000013 432.70617660000005 C 355.30267330000015 434.58703600000007 354.63275140000013 436.42248520000004 353.88458250000014 438.21936020000004 L 353.30462640000013 439.559204 L 352.7197875000001 440.82434070000005 C 352.50848380000014 441.28088370000006 352.1376342000001 442.01623520000004 351.9170531000001 442.46838370000006 C 351.8568724000001 442.59191890000005 351.7954711000001 442.71447750000004 351.7272338000001 442.83752430000004 L 351.36981190000006 443.49230950000003 C 349.71124260000005 446.5240478 347.5839232000001 449.21594230000005 345.23138420000004 451.65881340000004 C 344.87078850000006 452.0343017 344.50433340000006 452.40100090000004 344.13470450000005 452.7642822 C 341.31646720000003 455.47473140000005 338.22479240000007 457.87854000000004 334.9137572000001 459.92443840000004 C 332.26654040000005 461.58605950000003 329.47845450000005 463.01623530000006 326.59710680000006 464.22717280000006 C 326.59710680000006 464.22717280000006 326.59393300000005 464.23010250000004 326.5880736000001 464.2330322000001 C 325.8849486000001 464.5274658000001 325.1727904000001 464.8096924000001 324.4577025000001 465.0802002000001 C 320.8192748000001 466.4683838000001 317.0243529000001 467.4390869000001 313.1694945000001 468.0367432000001 C 306.3161009000001 469.1094971000001 299.2313841000001 468.7457276000001 292.5070189000001 466.9820557000001 C 292.6452025000001 467.2735596000001 302.7592162000001 479.5430909000001 304.9586791000001 482.0670166000001 C 297.0656127000001 481.5592041000001 286.7202758000001 480.2681885000001 279.0104369000001 478.1378174000001 C 271.3128051000001 476.03137210000006 263.8163451000001 471.90979010000007 257.1432494000001 467.2706299000001 C 256.11260980000014 466.5552979000001 255.10003650000013 465.80725100000006 254.11151110000011 465.02893070000005 L 254.1085814000001 465.02600100000006 C 251.9032591000001 463.2896729000001 249.8090209000001 461.3966065000001 247.8560179000001 459.36584480000005 C 245.0197142000001 456.42395030000006 242.4747923000001 453.19396980000005 240.2273558000001 449.76281750000004 C 237.9920042000001 446.3258058 236.1141966000001 442.66906750000004 234.4675902000001 438.9195558 L 233.2929076000001 436.0772706 C 233.1305541000001 435.6563722 232.9743041000001 435.2296144 232.8241576000001 434.8004151 C 232.45452870000008 435.9210206 232.1390990000001 437.0684815 231.8746947000001 438.2315674 C 231.0693968000001 441.79797360000003 230.69696030000011 445.529419 230.6217650000001 449.2642822 L 230.4445189000001 457.8721924 L 224.0868529000001 451.7672119 C 222.60552970000012 450.3458252 221.4697875000001 448.8946533 220.40911850000012 447.4224853 C 219.35760480000013 445.9503173 218.39617900000013 444.4595947 217.5158080000001 442.94543450000003 C 216.66851800000012 441.5064697 215.8753051000001 440.0523681 215.1242064000001 438.5826415 C 216.0303343000001 461.824829 226.3961791000001 480.9415282 243.8043822000001 497.04406730000005 C 242.4494017000001 490.60852040000003 241.1535033000001 481.85168450000003 240.7567748000001 471.63537590000004 C 244.1430053000001 479.42590320000005 245.0756225000001 507.89758290000003 299.6117553000001 514.6705321000001 C 299.61224360000006 514.6705321000001 299.6124877000001 514.6705321000001 299.61297600000006 514.6705321000001 L 299.61590570000004 514.6705321000001 C 302.56048580000004 513.5982665 305.4868774 512.4805907000001 308.3861694 511.31164540000003 C 314.97528070000004 508.6558837 321.45013420000004 505.75305160000005 327.588562 502.3492431 C 329.1207886 501.4927978 330.63519290000005 500.6153564 332.1102905 499.684204 C 333.59173580000004 498.7613524 335.0398559 497.79699700000003 336.4489135 496.78137200000003 C 338.3029174 495.4595947 340.0814819 494.05041500000004 341.7941283 492.55432120000006 C 341.31646720000003 492.28381340000004 340.8417357 492.01037590000004 340.37005600000003 491.73400870000006 C 338.80755600000003 490.8116454000001 337.2722777 489.8472899000001 335.7609251 488.83752430000004 C 334.2466429 487.83703600000007 332.7714231 486.76721180000004 331.3202513 485.65881340000004 C 329.8689574 484.55285640000005 328.46893289999997 483.3570556 327.10174539999997 482.12219230000005 L 323.4331663 478.80529780000006 L 328.29461649999996 478.2310790000001 C 334.21661359999996 477.53430170000007 340.03948949999995 475.9781493000001 345.51678449999997 473.5743407000001 C 350.9942015 471.1763915000001 356.1139525 467.9405516000001 360.70794659999996 464.0494384000001 C 365.30804429999995 460.1588134000001 369.37011699999994 455.6158446000001 372.8825682 450.6705322000001 C 376.39489729999997 445.7188720000001 379.354431 440.35852050000005 381.7880858 434.7642822000001 C 385.991516 425.0743408000001 388.6415404 414.7056884000001 389.894409 404.1563720000001 C 389.894409 404.1563720000001 389.894409 404.1534423000001 389.894409 404.15051260000007 C 387.5618286 391.2476807 382.5869141 379.269165 375.5510254 368.7843018 z M 320.6506958 383.2686768 C 310.79266359999997 386.3682862 310.8806763 391.9805909 310.8806763 395.0782471 C 310.8806763 398.1729737 309.60687260000003 400.6085205 305.2059937 399.2130127 C 301.1417847 397.92443849999995 297.1559449 396.61779789999997 293.81402590000005 399.4512939 C 293.24017340000006 397.9459228 293.06585700000005 395.8878173 295.09698490000005 395.5601806 C 302.0436402 394.4337158 304.80181890000006 387.4898681 308.0045777 384.2843017 C 311.21026620000004 381.081665 320.64935310000004 383.26818840000004 320.65081790000005 383.2686767 C 320.6508179 383.2686768 320.6508179 383.2686768 320.6506958 383.2686768 z" stroke-linecap="round" />
</g>
		<g transform="matrix(1.0637418096560296 0 0 1.0637418096560296 57.53930005126489 61.10457826731624)"  >
<path style="stroke: none; stroke-width: 1; stroke-dasharray: none; stroke-linecap: butt; stroke-dashoffset: 0; stroke-linejoin: miter; stroke-miterlimit: 4; fill: rgb(141,65,9); fill-rule: nonzero; opacity: 1;"  paint-order="stroke"  transform=" translate(-351.74229425, -479.3715514500001)" d="M 346.0696106 482.3956604 C 351.05725099999995 484.441803 357.17160029999997 487.3502197 361.60333249999996 489.4894714 C 351.5169372 498.9088134 339.34841919999997 506.1228027 325.86383049999995 510.37127680000003 C 327.47131339999993 509.48190300000005 329.06976309999993 508.56253050000004 330.65017689999996 507.6070556 C 332.22756949999996 506.6455993 333.79293809999996 505.6570739 335.32531729999994 504.60848990000005 C 336.86361689999995 503.56890860000004 338.37191759999996 502.47824090000006 339.84713739999995 501.33352650000006 C 342.79766839999996 499.05300890000007 345.5979614 496.53521720000003 348.16989129999996 493.85809320000004 L 350.78985589999996 491.13000480000005 L 347.4276733 489.60665890000007 C 347.0791931 489.45040890000007 346.67962639999996 489.26110840000007 346.3009643 489.07482910000004 L 345.1502685 488.50695800000005 C 344.3840942 488.12240600000007 343.6239318 487.7227783000001 342.863739 487.3141479000001 C 341.3494263 486.49688720000006 339.8591614 485.63461300000006 338.3959961 484.7362365000001 C 336.9266968 483.84390250000007 335.4995422 482.8884277000001 334.1054382 481.9029235000001 C 334.0243225 481.8457946000001 333.9461975 481.7887267000001 333.8680725 481.7316589000001 C 338.4440308 480.6860656000001 342.91186519999997 479.1506958000001 347.14227289999997 477.13766480000015 C 352.9020996 474.40646360000017 358.21716299999997 470.80999760000014 362.9193115 466.57656860000014 C 367.62451169999997 462.34310910000016 371.7106933 457.47872920000015 375.1900329 452.2537231000001 C 376.0373535 450.97979730000014 376.8455505 449.68484490000014 377.620758 448.37182610000013 C 364.9533997 470.3112793 355.2486267 477.4471436 346.0696106 482.3956604 z" stroke-linecap="round" />
</g>
		<g transform="matrix(1.0637418096560296 0 0 1.0637418096560296 -75.67712879186809 -30.755944869942283)"  >
<path style="stroke: none; stroke-width: 1; stroke-dasharray: none; stroke-linecap: butt; stroke-dashoffset: 0; stroke-linejoin: miter; stroke-miterlimit: 4; fill: rgb(114,51,12); fill-rule: nonzero; opacity: 1;"  paint-order="stroke"  transform=" translate(-226.5084944370456, -393.01551815)" d="M 224.6306152 438.618988 C 223.2996063 435.9508972 222.1188354 433.153656 221.06723019999998 430.2992859 C 218.8738708 424.35327149999995 217.17030329999997 418.1848755 215.92636109999998 411.9533692 C 215.3074036 408.8345948 214.80265809999997 405.697815 214.41204839999997 402.5520325 C 214.01843269999998 399.4092713 213.75405889999996 396.2574768 213.62187199999997 393.1116333 C 213.49263009999996 389.9688721 213.45660409999996 386.8260498 213.60083009999997 383.7073364 C 213.67593389999996 382.03677369999997 213.78706359999995 380.3722229 213.93730169999998 378.7167053 C 220.11178599999997 366.506134 228.87612919999998 355.8278503 239.50929269999997 347.4120483 C 222.9057922 369.2507935 216.7436066 389.6773987 224.6306152 438.618988 z" stroke-linecap="round" />
</g>
		<g transform="matrix(1.0637418096560296 0 0 1.0637418096560296 -44.48962635576157 22.312007008861542)"  >
<path style="stroke: none; stroke-width: 1; stroke-dasharray: none; stroke-linecap: butt; stroke-dashoffset: 0; stroke-linejoin: miter; stroke-miterlimit: 4; fill: rgb(82,2,2); fill-rule: nonzero; opacity: 1;"  paint-order="stroke"  transform=" translate(-255.82717135000001, -442.9035186)" d="M 277.075531 474.9142761 C 270.5405884 472.4354858 264.36315920000004 469.1004028 258.9669495 464.8068542 C 255.9413758 462.40921019999996 253.1680909 459.7201232 250.6953278 456.7936706 C 248.2195588 453.867218 246.0442505 450.7033996 244.1603699 447.38031 C 242.2885285 444.0482482 240.7622528 440.5328674 239.45523070000002 436.94543450000003 L 238.53280640000003 434.2322692 C 238.24436950000003 433.32189930000004 238.00399780000004 432.3934936 237.73661800000002 431.47409050000005 L 237.34300230000002 430.09497060000007 L 237.01847840000002 428.69485460000004 L 236.3695221 425.89758290000003 C 236.3695221 425.89758290000003 235.3960419 421.033203 234.57881170000002 417.6770629 C 239.55734260000003 412.6985168 241.60647590000002 410.89276110000003 241.60647590000002 410.89276110000003 C 243.6226196 439.1417847 250.8666077 461.8473511 277.075531 474.9142761 z" stroke-linecap="round" />
</g>
		<g transform="matrix(1.0637418096560296 0 0 1.0637418096560296 4.5816243179458525 11.92468253662787)"  >
<path style="stroke: none; stroke-width: 1; stroke-dasharray: none; stroke-linecap: butt; stroke-dashoffset: 0; stroke-linejoin: miter; stroke-miterlimit: 4; fill: rgb(165,166,165); fill-rule: nonzero; opacity: 1;"  paint-order="stroke"  transform=" translate(-301.95796195, -433.13862605)" d="M 313.0012817 452.8306274 C 312.3192443 452.8005676 311.631195 452.74050900000003 310.94311519999997 452.65637200000003 C 309.5639953 452.48809810000006 308.18795769999997 452.22369380000004 306.8298645 451.89019770000004 C 304.1107178 451.21414180000005 301.4576416 450.24069210000005 298.9878845 448.96374510000004 C 296.5211487 447.68377680000003 294.2226867 446.08532710000003 292.3868408 444.09933470000004 C 290.8605041 442.4528503 289.6977539 440.5118408 289.10287470000003 438.4116516 C 290.5961303 438.1833191 292.0803832 437.8468017 293.5346069 437.36004640000004 C 295.44555660000003 436.72009280000003 297.29333490000005 435.791687 298.93984980000005 434.58081060000006 C 300.58636470000005 433.37899790000006 302.0165405 431.9097596000001 303.24542230000003 430.3413697000001 C 304.4772643 428.7729798000001 305.50781240000003 427.10543830000006 306.4934081 425.45291140000006 C 308.44638050000003 422.13885500000004 310.237091 418.84283450000004 312.5385741 415.98248290000004 C 313.2476805 415.09011840000005 314.0077819 414.24282840000006 314.8100585 413.44662470000003 L 314.8130492 413.44662470000003 C 310.4713744 422.7427673 305.1803588 436.99050900000003 298.1586303 441.16384880000004 C 301.006958 446.2505798 307.9986267 451.4725342 313.0012817 452.8306274 z" stroke-linecap="round" />
</g>
		<g transform="matrix(1.0637418096560296 0 0 1.0637418096560296 30.78960873468276 9.079968498901337)"  >
<path style="stroke: none; stroke-width: 1; stroke-dasharray: none; stroke-linecap: butt; stroke-dashoffset: 0; stroke-linejoin: miter; stroke-miterlimit: 4; fill: rgb(143,63,17); fill-rule: nonzero; opacity: 1;"  paint-order="stroke"  transform=" translate(-326.59550479999996, -430.46437369674675)" d="M 334.7063599 434.8241882 C 328.6550904 435.86679069999997 322.6699829 434.5628051 318.4846497 431.24575799999997 C 319.2448121 430.1310729 320.06506349999995 429.05239859999995 320.9183045 428.00381459999994 C 321.543274 427.24063099999995 322.18923959999995 426.49249259999993 322.8563233 425.75338739999995 C 323.9379272 429.4309692 324.325531 433.0244446 334.7063599 434.8241882 z" stroke-linecap="round" />
</g>
		<g transform="matrix(1.0637418096560296 0 0 1.0637418096560296 -7.766487081653622 57.342612403736496)"  >
<path style="stroke: none; stroke-width: 1; stroke-dasharray: none; stroke-linecap: butt; stroke-dashoffset: 0; stroke-linejoin: miter; stroke-miterlimit: 4; fill: rgb(165,166,165); fill-rule: nonzero; opacity: 1;"  paint-order="stroke"  transform=" translate(-290.34977725, -475.8350110701534)" d="M 323.0280762 486.7256775 C 303.67965699999996 489.4909058 278.481659 484.5890198 254.11157229999998 465.0292053 C 255.10000609999997 465.8074035 256.11257939999996 466.555542 257.143219 467.2705993 C 263.8163757 471.9096984 271.3127747 475.1396179 279.0104675 477.24581900000004 C 286.7202453 479.37603750000005 294.64328 480.3555602 302.5363159 480.86331170000005 C 300.3369446 478.33947750000004 298.2397461 475.72851560000004 296.28677369999997 473.03640740000003 C 295.3132935 471.69036860000006 294.38793949999996 470.31426990000006 293.55566409999994 468.9081115 C 293.33926399999996 468.5595702 293.1470032 468.20504750000003 292.95474249999995 467.85049430000004 C 292.78948979999996 467.56207270000004 292.64526369999993 467.27362050000005 292.50698859999994 466.98217760000006 C 299.23129279999995 468.74588000000006 306.31610109999997 469.10943590000005 313.1694947 468.03677350000004 C 317.02438359999996 467.4388731 320.81921389999997 466.4684141 324.45770269999997 465.0802916 C 325.17282109999996 464.8098753 325.88488779999994 464.5274657 326.58798219999994 464.2330016 C 326.16735839999996 464.4613646 311.8084716999999 472.1981505 299.61288449999995 471.26068100000003 C 299.6128845 471.2606812 305.800293 481.3450623 323.0280762 486.7256775 z" stroke-linecap="round" />
</g>
		<g transform="matrix(1.0637418096560296 0 0 1.0637418096560296 -48.815549268495715 42.4393798591326)"  >
<path style="stroke: none; stroke-width: 1; stroke-dasharray: none; stroke-linecap: butt; stroke-dashoffset: 0; stroke-linejoin: miter; stroke-miterlimit: 4; fill: rgb(67,7,7); fill-rule: nonzero; opacity: 1;"  paint-order="stroke"  transform=" translate(-251.7604675, -461.82481385000006)" d="M 299.6128845 514.6708374 C 298.960907 514.685852 298.3088684 514.6918335 297.6508789 514.6918335 C 245.87605290000002 514.6918335 203.9080505 472.72393800000003 203.9080505 420.94906620000006 C 203.9080505 416.8868714000001 204.1664734 412.88473510000006 204.66821290000001 408.9577942000001 C 205.07086180000002 410.7455139000001 205.5065155 412.5212097000001 205.97824100000003 414.2879334000001 C 207.75392150000002 420.9129944000001 210.00434880000003 427.3968812000001 212.79260260000004 433.6854554000001 C 213.52571110000002 435.3319703000001 214.29791270000004 436.9664613000001 215.12416080000003 438.5798951000001 L 215.12416080000003 438.5829163000001 C 218.15881350000004 461.98855590000005 228.21212770000002 478.1261597000001 242.7783051 494.72647100000006 C 241.4232483 488.2906495000001 240.08145150000001 481.66195680000004 240.75682070000002 471.6353455000001 C 244.1429901 479.426178 251.3323364 505.26651 299.6128845 514.6708374 z" stroke-linecap="round" />
</g>
		<g transform="matrix(1.0637418096560296 0 0 1.0637418096560296 -20.794540334411863 -5.911107128013214)"  >
<path style="stroke: none; stroke-width: 1; stroke-dasharray: none; stroke-linecap: butt; stroke-dashoffset: 0; stroke-linejoin: miter; stroke-miterlimit: 4; fill: rgb(175,175,168); fill-rule: nonzero; opacity: 1;"  paint-order="stroke"  transform=" translate(-278.10239434702754, -416.3715971499999)" d="M 280.1522217 447.3172302 C 277.0184632 446.56607049999997 274.0709534 445.1899719 271.6672974 443.1047973 C 270.1349182 441.7948303 268.8249817 440.2324218 267.7553406 438.5047912 C 266.68273930000004 436.7771606 265.8473816 434.8872985 265.2194824 432.9252929 C 263.963501 428.9923095 263.5098877 424.77990719999997 263.6210327 420.6035156 C 263.6750793 418.7436828 263.8433533 416.88385009999996 264.1347961 415.0540771 C 264.1799011 415.26141349999995 264.224945 415.47171019999996 264.27600090000004 415.67901609999996 C 264.58547970000006 416.95898439999996 264.99713130000004 418.22988889999993 265.5709838 419.45880129999995 C 266.1449279 420.6876525999999 266.87200920000004 421.88046269999995 267.8965453 422.92608649999994 C 267.9566039 422.96511849999996 268.03775010000004 423.01019289999994 268.1099242 423.11535649999996 C 268.12789910000004 423.1394044 268.14593490000004 423.16644289999994 268.1609801 423.19647219999996 C 268.1609801 423.19647219999996 268.1639708 423.19647219999996 268.1639708 423.19949339999994 C 268.2180479 423.28662109999993 268.2660826 423.39477539999996 268.30819690000004 423.52398679999993 C 268.41934190000006 423.8634948999999 268.4794921 424.2901610999999 268.50347890000006 424.7348326999999 C 268.54858390000004 425.6331785999999 268.47640980000006 426.60668939999994 268.3983458000001 427.5801695999999 C 268.32015980000006 428.5566710999999 268.2240599000001 429.54815669999994 268.19097890000006 430.54565419999994 C 268.1639708000001 431.54019159999996 268.1819457000001 432.56472769999993 268.46444690000004 433.51422109999993 C 268.3952636 432.5317076999999 268.59060660000006 431.5732420999999 268.82498160000006 430.6358030999999 C 269.06536860000006 429.69537339999994 269.36279290000004 428.7669676999999 269.65423580000004 427.8205259999999 C 269.93966670000003 426.87408429999994 270.2341003 425.9156187999999 270.41439820000005 424.8580015999999 C 270.5015564 424.3291929999999 270.5616150000001 423.7703550999999 270.51049810000006 423.1424253999999 C 270.49252320000005 422.89901719999995 270.44741830000004 422.6376340999999 270.36929330000004 422.3702085999999 C 272.33731090000003 420.70266709999987 274.32037360000004 419.0261228999999 276.25830090000005 417.2774656999999 C 276.35739150000006 417.1903379999999 276.45355240000004 417.10018909999985 276.54974380000004 417.01306139999986 C 277.10562150000004 416.51129139999983 277.65539570000004 416.0005186999999 278.19924940000004 415.48376449999984 C 280.97247330000005 412.8457334999998 283.61050430000006 410.00341779999985 285.86090100000007 406.8275449999998 C 288.10833750000006 403.6577146999998 289.94717420000006 400.1393430999998 291.0949403000001 396.3776242999998 C 291.66879280000006 394.4997555999998 292.0743715000001 392.5678403999998 292.3087159000001 390.6208798999998 C 292.5160828000001 388.8932492999998 292.5852052000001 387.1565854999998 292.5370789000001 385.4259640999998 C 293.3843995000001 404.2165829999998 285.5124207000001 414.4862057999998 278.1932373000001 422.3161618999998 C 271.6702881 430.5787354 271.0062866 441.797821 280.1522217 447.3172302 z" stroke-linecap="round" />
</g>
		<g transform="matrix(1.0637418096560296 0 0 1.0637418096560296 21.215866410870035 -76.70222291921743)"  >
<path style="stroke: none; stroke-width: 1; stroke-dasharray: none; stroke-linecap: butt; stroke-dashoffset: 0; stroke-linejoin: miter; stroke-miterlimit: 4; fill: rgb(94,2,2); fill-rule: nonzero; opacity: 1;"  paint-order="stroke"  transform=" translate(-317.5954427201721, -349.82244476301685)" d="M 321.2668762 367.8792114 C 319.160675 368.6784363 316.9252014 369.13214109999996 314.6688537 369.23126219999995 C 312.8991088 369.30639649999995 311.1204223 369.16519159999996 309.3927917 368.79858399999995 C 310.02972409999995 367.89120479999997 310.66671749999995 366.99887089999993 311.28869619999995 366.12756349999995 C 316.4354857999999 358.90756229999994 320.88528429999997 352.67306519999994 322.25833119999993 346.48962399999994 C 323.56234729999994 340.62170409999993 321.94290149999995 335.43280029999994 317.1655882999999 330.3941039999999 C 325.848877 337.1003113 329.3041382 346.2792969 321.2668762 367.8792114 z" stroke-linecap="round" />
</g>
		<g transform="matrix(1.0637418096560296 0 0 1.0637418096560296 18.123475073527402 -79.61944166226311)"  >
<path style="stroke: none; stroke-width: 1; stroke-dasharray: none; stroke-linecap: butt; stroke-dashoffset: 0; stroke-linejoin: miter; stroke-miterlimit: 4; fill: rgb(143,68,22); fill-rule: nonzero; opacity: 1;"  paint-order="stroke"  transform=" translate(-314.68835445, -347.08003235)" d="M 315.4109497 355.5904846 C 316.2702331 347.1927185 314.3953857 343.1064453 310.8320007 338.56958010000005 C 313.9988403 340.69680790000007 317.2737732 344.7079163000001 318.5447082 349.74661260000005 C 317.7425232 351.6244507 316.6728821 353.5653992 315.4109497 355.5904846 z" stroke-linecap="round" />
</g>
		<g transform="matrix(1.0637418096560296 0 0 1.0637418096560296 61.31208083970017 -26.427204911223242)"  >
<path style="stroke: none; stroke-width: 1; stroke-dasharray: none; stroke-linecap: butt; stroke-dashoffset: 0; stroke-linejoin: miter; stroke-miterlimit: 4; fill: rgb(201,185,185); fill-rule: nonzero; opacity: 1;"  paint-order="stroke"  transform=" translate(-354.8178252878169, -397.02633777093297)" d="M 356.979248 438.5679016 C 360.8371582 432.8862305 364.90234369999996 425.22756960000004 367.9219055 415.3545227 C 372.7923889 384.0047913 360.2512817 365.85714720000004 336.7945251 357.0326843 C 338.5552368 356.20944210000005 341.85717769999997 355.4252319 344.60342399999996 355.48834230000006 C 347.7341613 355.5574341000001 351.3576965 356.23046880000004 355.21859729999994 357.4233093 C 379.3019104 380.5685425 377.5418091 409.9874268 356.979248 438.5679016 z" stroke-linecap="round" />
</g>
		<g transform="matrix(1.0637418096560296 0 0 1.0637418096560296 48.02131378613444 -21.173339526260662)"  >
<path style="stroke: none; stroke-width: 1; stroke-dasharray: none; stroke-linecap: butt; stroke-dashoffset: 0; stroke-linejoin: miter; stroke-miterlimit: 4; fill: rgb(163,163,153); fill-rule: nonzero; opacity: 1;"  paint-order="stroke"  transform=" translate(-342.7946472, -402.0239121575461)" d="M 355.7713928 414.570343 C 355.0533447 412.8427124 354.0588074 411.2262573 352.85095210000003 409.7930603 C 351.51394650000003 408.2426758 349.9275207 406.9056702 348.17883300000005 405.8721008 C 346.43624880000004 404.8204956 344.54934690000005 404.0603332 342.61434940000004 403.5195007 C 338.73547370000006 402.4618835 334.67929080000005 402.3417358 330.7612915 402.9185791 C 330.44580080000003 402.96667479999996 330.1304016 403.0177612 329.8179016 403.0748291 C 330.3797912 402.45285029999997 330.8904724 401.7618408 331.30215450000003 400.9926758 C 331.56057740000006 400.5058899 331.7889099 399.9921265 331.95410150000004 399.4573059 C 332.0352477 399.1899414 332.1193847 398.91946409999997 332.1705016 398.6430969 L 332.21252430000004 398.4387817 C 332.2275695 398.3726501 332.24255360000006 398.3035583 332.25457750000004 398.20742789999997 C 332.28164660000004 398.033142 332.2936705 397.85589589999995 332.2966612 397.6786193 C 332.3027037 396.97253409999996 332.12237530000004 396.3205566 331.8760679 395.7586669 C 331.62664770000004 395.19683829999997 331.3081663 394.7100524 330.96868870000003 394.2713927 C 330.65316750000005 393.86880479999996 330.3196408 393.5052184 329.97113010000004 393.1657408 C 334.97073340000003 390.5547484 340.66738860000004 389.20269759999996 347.05520600000006 389.5241698 C 339.38149990000005 391.29690539999996 336.16955540000004 392.57684309999996 335.1329648000001 393.61642439999997 C 335.7129209000001 394.7281187 336.7734677000001 397.52838119999996 335.61373870000006 399.9440611 C 340.1566162 399.7517395 353.0402832 403.0417786 355.7713928 414.570343 z" stroke-linecap="round" />
</g>
		<g transform="matrix(1.0637418096560296 0 0 1.0637418096560296 10.192352831554615 -31.427435946566987)"  >
<path style="stroke: none; stroke-width: 1; stroke-dasharray: none; stroke-linecap: butt; stroke-dashoffset: 0; stroke-linejoin: miter; stroke-miterlimit: 4; fill: rgb(131,131,126); fill-rule: nonzero; opacity: 1;"  paint-order="stroke"  transform=" translate(-307.2324829500001, -392.3842643339618)" d="M 318.6678772 399.0276794 C 309.3927918 406.1545105 300.1477051 395.1667785 293.81402590000005 399.4512939 C 294.78750610000003 397.9910888 297.35040290000006 396.1793518 301.99246220000003 397.4172058 C 306.6345215 398.65512079999996 308.27209480000005 398.65512079999996 308.6686402 392.9073181 C 309.0682679 387.15960689999997 312.64675910000005 385.0383606 320.65094000000005 383.2686462 C 310.7929078 387.70642089999996 311.92861940000006 392.372528 311.92861940000006 395.4702453 C 311.9286194 398.5649719 314.5395813 399.0276794 318.6678772 399.0276794 z" stroke-linecap="round" />
</g>
</g>
</g>
<g transform="matrix(1.9211538461538462 0 0 1.9211538461538462 779.8312538184059 526.3277563366703)" id="text-logo"  >
<g style=""  paint-order="stroke"   >
		<g transform="matrix(1 0 0 1 0 0)" id="text-logo-path-0"  >
<path style="stroke: none; stroke-width: 0; stroke-dasharray: none; stroke-linecap: butt; stroke-dashoffset: 0; stroke-linejoin: miter; stroke-miterlimit: 4; fill: rgb(131,58,14); fill-rule: nonzero; opacity: 1;"  paint-order="stroke"  transform=" translate(-174.3, 26.25)" d="M 25.46 -4.01 Q 20.1 0.9 17.4 0.9 Q 14.7 0.9 9.34 -4.01 Q 3.97 -8.92 2.7 -12 L 2.7 -12 Q 1.88 -13.95 1.88 -21.82 L 1.88 -21.82 L 1.88 -30.67 Q 1.88 -38.55 2.7 -40.5 L 2.7 -40.5 Q 3.97 -43.57 9.34 -48.49 Q 14.7 -53.4 17.4 -53.4 Q 20.1 -53.4 25.46 -48.49 Q 30.82 -43.57 32.1 -40.5 L 32.1 -40.5 Q 32.92 -38.55 32.92 -30.67 L 32.92 -30.67 L 32.92 -21.82 Q 32.92 -13.95 32.1 -12 L 32.1 -12 Q 30.82 -8.92 25.46 -4.01 Z M 14.89 -11.36 Q 16.35 -9.82 17.4 -9.82 Q 18.45 -9.82 19.91 -11.36 Q 21.38 -12.9 21.97 -14.29 Q 22.57 -15.67 22.57 -21.82 L 22.57 -21.82 L 22.57 -30.67 Q 22.57 -36.82 21.97 -38.21 Q 21.38 -39.6 19.91 -41.14 Q 18.45 -42.67 17.4 -42.67 Q 16.35 -42.67 14.89 -41.14 Q 13.42 -39.6 12.82 -38.21 Q 12.22 -36.82 12.22 -30.67 L 12.22 -30.67 L 12.22 -21.82 Q 12.22 -15.67 12.82 -14.29 Q 13.42 -12.9 14.89 -11.36 Z M 74.85 -52.5 L 74.85 -52.5 L 85.2 -52.5 Q 85.2 -49.88 84.64 -44.17 Q 84.07 -38.48 83.63 -37.2 L 83.63 -37.2 Q 82.8 -34.65 77.17 -29.02 L 77.17 -29.02 Q 79.95 -26.4 82.13 -23.55 Q 84.3 -20.7 84.79 -19.16 Q 85.28 -17.63 85.84 -10.46 Q 86.4 -3.3 86.4 0 L 86.4 0 L 76.05 0 Q 76.05 -2.7 75.52 -9.56 Q 75 -16.43 74.7 -17.55 L 74.7 -17.55 Q 74.02 -19.35 71.92 -21.68 Q 69.82 -24 68.85 -24 Q 67.88 -24 65.77 -21.68 Q 63.67 -19.35 63.15 -17.89 Q 62.63 -16.43 62.14 -9.64 Q 61.65 -2.85 61.65 0 L 61.65 0 L 51.3 0 Q 51.3 -3.3 51.86 -10.46 Q 52.42 -17.63 52.91 -19.16 Q 53.4 -20.7 55.57 -23.55 Q 57.75 -26.4 60.52 -29.02 L 60.52 -29.02 Q 57.75 -30.52 56.14 -33.26 Q 54.52 -36 54.15 -38.48 L 54.15 -38.48 Q 53.02 -45.15 50.02 -47.1 L 50.02 -47.1 L 59.02 -53.4 Q 61.27 -52.13 62.55 -49.24 Q 63.82 -46.35 64.16 -43.46 Q 64.5 -40.57 65.66 -37.54 Q 66.82 -34.5 68.85 -33 L 68.85 -33 Q 70.13 -33.23 71.51 -35.14 Q 72.9 -37.05 73.35 -38.4 Q 73.8 -39.75 74.32 -45.11 Q 74.85 -50.48 74.85 -52.5 Z M 117.45 0 L 107.1 0 L 107.1 -52.5 L 117.45 -52.5 L 117.45 0 Z M 168.75 -21.15 L 168.75 -21.15 Q 169.57 -19.8 169.57 -15.79 Q 169.57 -11.78 167.93 -9 L 167.93 -9 Q 166.43 -6.83 161.55 -2.96 Q 156.68 0.9 154.35 0.9 L 154.35 0.9 Q 150.22 0.9 144.9 -3.41 Q 139.58 -7.72 138.15 -12.9 L 138.15 -12.9 L 146.47 -18.6 Q 147.68 -15.07 150.3 -12.15 Q 152.93 -9.22 154.01 -9.22 Q 155.1 -9.22 156.34 -9.94 Q 157.58 -10.65 158.25 -11.4 L 158.25 -11.4 Q 159.22 -12.6 159.22 -15.15 Q 159.22 -17.7 158.03 -18.3 L 158.03 -18.3 Q 156.53 -19.57 152.21 -21.68 Q 147.9 -23.77 144.22 -26.21 Q 140.55 -28.65 139.54 -30.97 Q 138.53 -33.3 138.53 -37.01 Q 138.53 -40.73 140.18 -43.5 L 140.18 -43.5 Q 141.68 -45.67 146.55 -49.54 Q 151.43 -53.4 153.75 -53.4 L 153.75 -53.4 Q 157.88 -53.4 163.2 -49.09 Q 168.53 -44.77 169.95 -39.6 L 169.95 -39.6 L 161.63 -33.82 Q 160.43 -37.35 157.8 -40.31 Q 155.18 -43.27 154.09 -43.27 Q 153 -43.27 151.72 -42.6 Q 150.45 -41.92 149.66 -40.91 Q 148.88 -39.9 148.88 -37.46 Q 148.88 -35.02 150.38 -34.2 L 150.38 -34.2 Q 151.58 -33.15 155.85 -30.9 L 155.85 -30.9 Q 166.8 -24.9 168.75 -21.15 Z M 209.32 -52.5 L 219.67 -52.5 L 219.67 -24.07 Q 219.67 -19.88 220.16 -17.66 Q 220.65 -15.45 222.15 -12.64 Q 223.65 -9.82 224.21 -9.82 Q 224.77 -9.82 226.27 -12.64 Q 227.77 -15.45 228.3 -17.66 Q 228.82 -19.88 228.82 -24.07 L 228.82 -24.07 L 228.82 -32.1 Q 228.82 -38.4 227.96 -40.91 Q 227.1 -43.42 224.32 -47.1 L 224.32 -47.1 L 233.32 -53.4 Q 235.72 -51.75 237.45 -47.25 Q 239.17 -42.75 239.17 -36.45 L 239.17 -36.45 L 239.17 -24.07 Q 239.17 -18.22 238.05 -14.44 Q 236.92 -10.65 231.86 -4.88 Q 226.8 0.9 224.25 0.9 L 224.25 0.9 Q 222.67 0.9 219.86 -1.95 Q 217.05 -4.8 214.5 -8.63 L 214.5 -8.63 Q 211.8 -4.72 209.06 -1.91 Q 206.32 0.9 204.75 0.9 L 204.75 0.9 Q 202.2 0.9 197.14 -4.88 Q 192.07 -10.65 190.95 -14.44 Q 189.82 -18.22 189.82 -24.07 L 189.82 -24.07 L 189.82 -52.5 L 200.17 -52.5 L 200.17 -24.07 Q 200.17 -19.2 200.7 -17.32 Q 201.22 -15.45 202.72 -12.64 Q 204.22 -9.82 204.79 -9.82 Q 205.35 -9.82 206.85 -12.64 Q 208.35 -15.45 208.84 -17.66 Q 209.32 -19.88 209.32 -24.07 L 209.32 -24.07 L 209.32 -52.5 Z M 267.97 -48.52 Q 273.3 -53.4 276.07 -53.4 Q 278.85 -53.4 284.17 -48.52 Q 289.5 -43.65 290.77 -40.5 L 290.77 -40.5 Q 291.6 -38.32 291.6 -30.67 L 291.6 -30.67 L 291.6 0 L 281.25 0 L 281.25 -11.25 L 270.9 -11.25 L 270.9 0 L 260.55 0 L 260.55 -30.67 Q 260.55 -38.32 261.37 -40.5 L 261.37 -40.5 Q 262.65 -43.65 267.97 -48.52 Z M 270.9 -30.67 L 270.9 -30.67 L 270.9 -20.25 L 281.25 -20.25 L 281.25 -30.67 Q 281.25 -36.82 280.65 -38.21 Q 280.05 -39.6 278.59 -41.14 Q 277.12 -42.67 276.07 -42.67 Q 275.02 -42.67 273.56 -41.14 Q 272.1 -39.6 271.5 -38.21 Q 270.9 -36.82 270.9 -30.67 Z M 329.32 -15.75 L 329.32 -25.43 L 330.82 -25.43 Q 332.25 -25.43 334.16 -26.81 Q 336.07 -28.2 336.6 -29.85 Q 337.12 -31.5 337.12 -34.27 Q 337.12 -37.05 336.6 -38.89 Q 336.07 -40.73 334.16 -42.07 Q 332.25 -43.42 330.49 -43.42 Q 328.72 -43.42 325.72 -41.48 L 325.72 -41.48 Q 325.95 -39 325.95 -36.45 L 325.95 -36.45 L 325.95 0 L 315.6 0 L 315.6 -32.1 Q 315.6 -38.4 314.74 -40.99 Q 313.87 -43.57 311.1 -47.02 L 311.1 -47.02 L 320.1 -53.4 Q 322.05 -52.05 323.55 -48.98 L 323.55 -48.98 Q 329.7 -53.4 332.32 -53.4 Q 334.95 -53.4 339.6 -49.2 Q 344.25 -45 345.9 -42.15 L 345.9 -42.15 Q 346.72 -41.1 346.72 -34.88 Q 346.72 -28.65 345.9 -27 L 345.9 -27 Q 344.25 -24.15 339.6 -19.95 Q 334.95 -15.75 332.32 -15.75 L 332.32 -15.75 L 329.32 -15.75 Z" stroke-linecap="round" />
</g>
</g>
</g>
<g transform="matrix(1 0 0 1 223.48503702259373 294.9080055877594)" id="tagline-361e336e-c87f-4613-9b2c-cb10ac64ca55-logo"  >
<g style=""  paint-order="stroke"   >
		<g transform="matrix(1 0 0 1 0 0)" id="tagline-361e336e-c87f-4613-9b2c-cb10ac64ca55-logo-path-0"  >
<path style="stroke: none; stroke-width: 0; stroke-dasharray: none; stroke-linecap: butt; stroke-dashoffset: 0; stroke-linejoin: miter; stroke-miterlimit: 4; fill: rgb(0,158,154); fill-rule: nonzero; opacity: 1;"  paint-order="stroke"  transform=" translate(0, 0)" d="" stroke-linecap="round" />
</g>
</g>
</g>
</svg>