<svg width="25px" height="25px" viewBox="0 0 41 41" xmlns="http://www.w3.org/2000/svg"><path d="M33.9523 14.2212C33.9689 14.5045 33.9689 14.8045 33.9689 15.1045C33.9689 24.0045 27.1022 34.2545 14.5356 34.2545C10.6689 34.2545 7.06891 33.1545 4.05225 31.2378C4.60225 31.3045 5.13559 31.3212 5.70226 31.3212C8.90226 31.3212 11.8356 30.2545 14.1856 28.4545C11.1856 28.3878 8.66891 26.4545 7.80225 23.7878C8.21891 23.8545 8.65225 23.8878 9.08559 23.8878C9.70225 23.8878 10.3189 23.8045 10.8856 23.6545C7.75226 23.0211 5.40224 20.3212 5.40224 17.0545V16.9712C6.31891 17.4712 7.36892 17.7878 8.48559 17.8211C6.65225 16.6045 5.43558 14.5545 5.43558 12.2211C5.43558 10.9711 5.76891 9.82115 6.36891 8.82115C9.73558 12.9045 14.7856 15.5711 20.4522 15.8711C20.3522 15.3711 20.2856 14.8545 20.2856 14.3378C20.2856 10.6211 23.3356 7.60449 27.1189 7.60449C29.0856 7.60449 30.8689 8.42114 32.1023 9.72114C33.6523 9.43781 35.1189 8.87116 36.4356 8.1045C35.9356 9.67116 34.8523 10.9878 33.4356 11.8045C34.8023 11.6545 36.1356 11.2878 37.3689 10.7711C36.4356 12.1045 35.2689 13.2878 33.9356 14.2545L33.9523 14.2212Z" fill="inherit"></path></svg>